Coordinates
version=1
nRows=25
nColumns=33
inDegrees=yes

Units are S.I. units (second, meters, Newtons, ...)
Angles are in degrees.

endheader
time	ground_thorax_rot_x	ground_thorax_rot_y	ground_thorax_rot_z	ground_thorax_tx	ground_thorax_ty	ground_thorax_tz	clav_prot_r	clav_elev_r	scapula_abduction_r	scapula_elevation_r	scapula_upward_rot_r	scapula_winging_r	shoulder_elv_r	plane_of_elev_r	axial_rot_r	elbow_flexion_r	pro_sup_r	wrist_flex_r	wrist_dev_r	clav_prot_l	clav_elev_l	scapula_abduction_l	scapula_elevation_l	scapula_upward_rot_l	scapula_winging_l	shoulder_elv_l	plane_of_elev_l	axial_rot_l	elbow_flexion_l	pro_sup_l	wrist_flex_l	wrist_dev_l	
3.3600	-38.882239	-8.061116	14.318805	-193.086174	830.707862	3.354628	-2.484068	-45.000000	42.880529	-45.000000	13.745186	-3710.406632	-1009.573420	23.316277	-180.000000	1806.626069	-136.561262	17.550464	13.883275	16.578754	39.260776	-40.738785	-45.000000	-41.092879	444.904737	-814.837734	135.603567	168.751058	370.574756	0.526736	8.353096	-19.809581	
3.3700	-38.839743	-8.029533	14.327389	-195.102781	831.862217	3.263947	-2.381620	-45.000000	42.676740	-45.000000	13.244968	-3710.321314	-1009.425286	23.367172	-180.000000	1806.639228	-137.195799	17.601512	13.924850	16.543574	39.108395	-40.671203	-45.000000	-41.410941	445.032319	-814.739238	135.609863	168.515015	370.564093	0.019491	8.249931	-19.808201	
3.3800	-38.803509	-7.990852	14.324002	-197.080879	832.975112	3.187417	-2.296066	-45.000000	42.480592	-45.000000	12.774692	-3710.243797	-1009.283167	23.412281	-180.000000	1806.659526	-137.842801	17.649534	13.966337	16.493804	38.992323	-40.598038	-45.000000	-41.661738	445.160061	-814.668525	135.644897	168.234037	370.573906	-0.434203	8.149494	-19.813061	
3.3900	-38.765861	-7.956591	14.326943	-199.020640	834.046057	3.126250	-2.200996	-45.000000	42.289565	-45.000000	12.297339	-3710.172889	-1009.147219	23.459440	-180.000000	1806.686500	-138.501426	17.693835	14.008159	16.456652	38.858562	-40.522519	-45.000000	-41.943453	445.286657	-814.587570	135.660774	167.973928	370.572831	-0.851332	8.026533	-19.814437	
3.4000	-38.730710	-7.919785	14.324999	-200.923248	835.074607	3.081332	-2.129437	-45.000000	42.105114	-45.000000	11.858591	-3710.111062	-1009.011976	23.501467	-180.000000	1806.721011	-139.148325	17.735480	14.044967	16.403072	38.767320	-40.435495	-45.000000	-42.149536	445.417979	-814.538254	135.700399	167.647379	370.588577	-1.192969	7.916033	-19.821381	
3.4100	-38.693360	-7.882784	14.326748	-202.791306	836.060615	3.052979	-2.051912	-45.000000	41.927259	-45.000000	11.409814	-3710.053759	-1008.882832	23.543703	-180.000000	1806.753651	-139.787490	17.778785	14.077759	16.357193	38.665684	-40.348443	-45.000000	-42.376248	445.541548	-814.484264	135.730716	167.339362	370.595177	-1.482987	7.786385	-19.825462	
3.4200	-38.657731	-7.845601	14.327996	-204.628792	837.004374	3.040735	-1.991928	-45.000000	41.757266	-45.000000	10.986911	-3710.005056	-1008.753819	23.580580	-180.000000	1806.789448	-140.402677	17.823154	14.103002	16.299120	38.595879	-40.255603	-45.000000	-42.553062	445.664946	-814.454367	135.781490	166.981826	370.611985	-1.695285	7.662243	-19.832762	
3.4300	-38.621847	-7.809333	14.332595	-206.440452	837.906493	3.043543	-1.922673	-45.000000	41.592460	-45.000000	10.542706	-3709.958987	-1008.631345	23.617596	-180.000000	1806.821215	-141.001652	17.873143	14.123397	16.250287	38.510303	-40.165118	-45.000000	-42.763724	445.777655	-814.414604	135.822792	166.655479	370.619595	-1.854890	7.515535	-19.836442	
3.4400	-38.587181	-7.774728	14.336942	-208.230963	838.767741	3.059952	-1.852686	-45.000000	41.429427	-45.000000	10.090117	-3709.916754	-1008.512756	23.655362	-180.000000	1806.849719	-141.582874	17.929310	14.138544	16.203421	38.425066	-40.072514	-45.000000	-42.983967	445.879714	-814.377134	135.865911	166.341187	370.625808	-1.954313	7.355784	-19.838322	
3.4500	-38.553427	-7.738012	14.342625	-210.003678	839.588603	3.088579	-1.769882	-45.000000	41.268365	-45.000000	9.600834	-3709.874939	-1008.400372	23.694093	-180.000000	1806.868603	-142.158014	17.994088	14.150213	16.166525	38.320336	-39.985587	-45.000000	-43.257370	445.958654	-814.322359	135.901558	166.093049	370.624379	-2.007125	7.173952	-19.835043	
3.4600	-38.522638	-7.703000	14.349603	-211.760208	840.369200	3.128389	-1.685654	-45.000000	41.109315	-45.000000	9.096855	-3709.837362	-1008.291848	23.731208	-180.000000	1806.881430	-142.728313	18.064528	14.157712	16.131700	38.215662	-39.900480	-45.000000	-43.554112	446.020666	-814.263044	135.942333	165.877155	370.624842	-1.996282	6.982009	-19.828744	
3.4700	-38.494700	-7.669875	14.361399	-213.500077	841.109093	3.178950	-1.598244	-45.000000	40.952893	-45.000000	8.574219	-3709.803769	-1008.187447	23.765683	-180.000000	1806.890493	-143.301891	18.138023	14.162031	16.099525	38.108482	-39.818627	-45.000000	-43.881822	446.067133	-814.193373	135.983371	165.701904	370.627128	-1.914371	6.782360	-19.818529	
3.4800	-38.472928	-7.640282	14.373719	-215.221694	841.807786	3.240213	-1.515928	-45.000000	40.800105	-45.000000	8.057791	-3709.776646	-1008.086896	23.796987	-180.000000	1806.902553	-143.882174	18.209927	14.164168	16.063212	38.011507	-39.733683	-45.000000	-44.196654	446.111095	-814.130507	136.031028	165.519281	370.632084	-1.745585	6.577261	-19.806152	
3.4900	-38.457344	-7.616988	14.390309	-216.922910	842.464956	3.312317	-1.442477	-45.000000	40.653450	-45.000000	7.562683	-3709.758331	-1007.988767	23.824239	-180.000000	1806.927985	-144.472739	18.274607	14.165699	16.019217	37.930783	-39.645256	-45.000000	-44.478622	446.165150	-814.082511	136.085153	165.299329	370.641219	-1.480876	6.368249	-19.792693	
3.5000	-38.450844	-7.593802	14.399490	-218.602274	843.081095	3.395279	-1.379403	-45.000000	40.511264	-45.000000	7.089079	-3709.745655	-1007.898204	23.848422	-180.000000	1806.962238	-145.080152	18.332383	14.167175	15.965362	37.869056	-39.545295	-45.000000	-44.696446	446.224530	-814.055345	136.152627	165.040924	370.654327	-1.116441	6.156463	-19.777644	
3.5100	-38.452121	-7.577825	14.410544	-220.259080	843.657571	3.488906	-1.329379	-45.000000	40.375639	-45.000000	6.651575	-3709.742389	-1007.808664	23.869249	-180.000000	1807.016214	-145.704671	18.378080	14.169853	15.899490	37.832018	-39.437521	-45.000000	-44.850265	446.302830	-814.054519	136.230064	164.714974	370.671259	-0.651394	5.943627	-19.761444	
3.5200	-38.464233	-7.556461	14.408238	-221.893730	844.196907	3.592679	-1.286436	-45.000000	40.243958	-45.000000	6.232223	-3709.743393	-1007.727989	23.888511	-180.000000	1807.077906	-146.349766	18.416074	14.174134	15.826671	37.807688	-39.315626	-45.000000	-44.931533	446.385026	-814.071904	136.315652	164.353375	370.684883	-0.095685	5.725198	-19.740952	
3.5300	-38.483198	-7.537488	14.404513	-223.507092	844.702551	3.705798	-1.247330	-45.000000	40.115740	-45.000000	5.828371	-3709.750428	-1007.651228	23.906804	-180.000000	1807.150843	-147.013256	18.445156	14.180369	15.750439	37.793128	-39.186807	-45.000000	-44.970585	446.475666	-814.101288	136.403462	163.966933	370.699146	0.541636	5.501352	-19.716240	
3.5400	-38.508299	-7.514677	14.391644	-225.100336	845.178778	3.827172	-1.205592	-45.000000	39.986477	-45.000000	5.416600	-3709.757979	-1007.584466	23.925453	-180.000000	1807.219135	-147.693972	18.472101	14.187189	15.675245	37.777609	-39.050043	-45.000000	-44.986629	446.556572	-814.129623	136.492218	163.606383	370.712804	1.246806	5.273941	-19.685195	
3.5500	-38.535471	-7.502418	14.388838	-226.674290	845.630280	3.955395	-1.166420	-45.000000	39.859975	-45.000000	5.018175	-3709.772984	-1007.514398	23.942287	-180.000000	1807.296624	-148.374681	18.493258	14.193427	15.597276	37.771023	-38.917343	-45.000000	-45.000000	446.648110	-814.161006	136.578274	163.234335	370.731094	2.013829	5.048410	-19.651152	
3.5600	-38.566096	-7.490805	14.382689	-228.229448	846.061851	4.088650	-1.127891	-45.000000	39.734956	-45.000000	4.622496	-3709.791331	-1007.447101	23.957811	-180.000000	1807.371611	-149.039700	18.515548	14.196600	15.517591	37.767602	-38.784052	-45.000000	-45.000000	446.736835	-814.191951	136.662509	162.871570	370.750705	2.831142	4.827094	-19.613415	
3.5700	-38.597928	-7.485154	14.382059	-229.765505	846.477763	4.224663	-1.091717	-45.000000	39.614396	-45.000000	4.235999	-3709.815636	-1007.375634	23.970335	-180.000000	1807.451125	-149.669267	18.539537	14.194809	15.435090	37.771917	-38.658110	-45.000000	-45.000000	446.827994	-814.222351	136.745909	162.511445	370.777938	3.689313	4.612888	-19.575156	
3.5800	-38.632047	-7.477856	14.374555	-231.281322	846.881177	4.360754	-1.054509	-45.000000	39.496328	-45.000000	3.842196	-3709.839979	-1007.308210	23.980190	-180.000000	1807.523234	-150.251055	18.572666	14.185906	15.351685	37.777556	-38.534506	-45.000000	-45.000000	446.903262	-814.247184	136.830625	162.189837	370.809681	4.576467	4.408843	-19.535183	
3.5900	-38.668263	-7.469207	14.362051	-232.774574	847.273481	4.493964	-1.018093	-45.000000	39.385650	-45.000000	3.449703	-3709.866552	-1007.241807	23.985209	-180.000000	1807.592512	-150.770793	18.614977	14.168736	15.266260	37.788621	-38.417079	-45.000000	-45.000000	446.965357	-814.267777	136.919119	161.890969	370.845871	5.487601	4.216961	-19.495740	
3.6000	-38.706402	-7.453544	14.337052	-234.241895	847.653994	4.621260	-0.979106	-45.000000	39.278409	-45.000000	3.046032	-3709.892034	-1007.183671	23.986705	-180.000000	1807.648697	-151.224016	18.671124	14.142277	15.182536	37.796859	-38.300955	-45.000000	-45.000000	447.002477	-814.280215	137.010051	161.643537	370.885021	6.411948	4.036000	-19.455929	
